<svg width="35" height="32" viewBox="0 0 35 32" fill="none" xmlns="http://www.w3.org/2000/svg">
<path d="M14.397 27.2157C14.7164 27.2157 15.0228 27.0896 15.2486 26.8653C15.4745 26.641 15.6014 26.3368 15.6014 26.0196V23.6274C15.6014 23.3102 15.4745 23.006 15.2486 22.7817C15.0228 22.5574 14.7164 22.4313 14.397 22.4313C14.0776 22.4313 13.7713 22.5574 13.5454 22.7817C13.3196 23.006 13.1927 23.3102 13.1927 23.6274V26.0196C13.1927 26.3368 13.3196 26.641 13.5454 26.8653C13.7713 27.0896 14.0776 27.2157 14.397 27.2157ZM9.57971 27.2157C9.89911 27.2157 10.2054 27.0896 10.4313 26.8653C10.6572 26.641 10.784 26.3368 10.784 26.0196V23.6274C10.784 23.3102 10.6572 23.006 10.4313 22.7817C10.2054 22.5574 9.89911 22.4313 9.57971 22.4313C9.2603 22.4313 8.95397 22.5574 8.72812 22.7817C8.50226 23.006 8.37537 23.3102 8.37537 23.6274V26.0196C8.37537 26.3368 8.50226 26.641 8.72812 26.8653C8.95397 27.0896 9.2603 27.2157 9.57971 27.2157ZM20.4187 12.8627H18.7567L16.6732 8.73628C16.6095 8.58444 16.515 8.44728 16.3956 8.33335C16.2761 8.21943 16.1343 8.1312 15.979 8.07418C15.8236 8.01716 15.6581 7.99257 15.4928 8.00195C15.3274 8.01132 15.1658 8.05447 15.018 8.12868C14.8702 8.2029 14.7394 8.30659 14.6338 8.43328C14.5282 8.55996 14.45 8.70692 14.4042 8.86497C14.3583 9.02302 14.3458 9.18876 14.3674 9.35184C14.3889 9.51491 14.4441 9.67182 14.5295 9.81275L16.059 12.8627H7.91773L9.44723 9.81275C9.56413 9.53395 9.5705 9.22155 9.46508 8.93828C9.35965 8.65501 9.15023 8.42183 8.87886 8.28556C8.60749 8.14929 8.29425 8.12001 8.00205 8.20362C7.70985 8.28722 7.4603 8.47751 7.30352 8.73628L5.22003 12.8627H3.55805C2.70682 12.8756 1.8875 13.1866 1.24459 13.7408C0.601689 14.2951 0.176502 15.057 0.0440219 15.8922C-0.0884583 16.7274 0.080279 17.5822 0.520474 18.3059C0.960668 19.0296 1.64404 19.5757 2.45007 19.8478L3.34127 28.7705C3.43114 29.6587 3.85112 30.4817 4.5192 31.0789C5.18727 31.676 6.05547 32.0044 6.95426 32H17.0466C17.9453 32.0044 18.8135 31.676 19.4816 31.0789C20.1497 30.4817 20.5697 29.6587 20.6595 28.7705L21.5507 19.8478C22.3585 19.5749 23.043 19.0268 23.4829 18.3007C23.9227 17.5746 24.0897 16.7173 23.9541 15.8806C23.8185 15.044 23.3891 14.282 22.742 13.7296C22.0949 13.1773 21.2719 12.8702 20.4187 12.8627ZM18.2388 28.5313C18.2089 28.8274 18.0689 29.1017 17.8462 29.3008C17.6235 29.4998 17.3341 29.6093 17.0345 29.6078H6.94222C6.64262 29.6093 6.35322 29.4998 6.13053 29.3008C5.90784 29.1017 5.76785 28.8274 5.73789 28.5313L4.88282 20.0392H19.0939L18.2388 28.5313ZM20.4187 17.647H3.55805C3.23864 17.647 2.93232 17.521 2.70646 17.2967C2.48061 17.0724 2.35372 16.7682 2.35372 16.451C2.35372 16.1337 2.48061 15.8295 2.70646 15.6052C2.93232 15.3809 3.23864 15.2549 3.55805 15.2549H20.4187C20.7381 15.2549 21.0444 15.3809 21.2703 15.6052C21.4961 15.8295 21.623 16.1337 21.623 16.451C21.623 16.7682 21.4961 17.0724 21.2703 17.2967C21.0444 17.521 20.7381 17.647 20.4187 17.647Z" fill="#030C0C"/>
<circle cx="26.5" cy="8.5" r="8.5" fill="#FF5B5B"/>
<path d="M24.08 4.228V9.28H25.376C25.604 8.632 26.144 8.188 26.948 8.188C28.088 8.188 28.652 8.836 28.652 9.976C28.652 11.056 28.124 11.86 26.948 11.86C26.024 11.86 25.4 11.38 25.22 10.636H23.888C24.092 12.004 25.136 13 26.936 13C28.964 13 29.96 11.68 29.96 9.94C29.96 8.62 29.3 7.024 27.152 7.024C26.372 7.024 25.664 7.384 25.34 7.816V5.428H29.36V4.228H24.08Z" fill="#FBFBFB"/>
</svg>
