<svg width="15" height="13" viewBox="0 0 15 13" fill="none" xmlns="http://www.w3.org/2000/svg">
<path d="M15 6.13625C15 5.79232 14.7444 5.50808 14.4128 5.4631L14.3206 5.4569L2.37854 5.45744L6.69287 1.16074C6.95874 0.896006 6.95967 0.465865 6.69494 0.19999C6.45427 -0.0417137 6.0769 -0.0644522 5.81053 0.132308L5.73419 0.197922L0.254081 5.65448C0.219034 5.68938 0.188594 5.72714 0.162759 5.76702C0.155461 5.77903 0.148034 5.79131 0.140991 5.80384C0.134515 5.81458 0.128661 5.82573 0.123139 5.837C0.11547 5.85341 0.107977 5.87035 0.101173 5.88765C0.0956459 5.90098 0.0910301 5.91395 0.0868196 5.92702C0.0818148 5.94323 0.076952 5.9605 0.0727692 5.97803C0.0696592 5.99028 0.0671959 6.00206 0.0650482 6.01389C0.062027 6.03149 0.0594549 6.0497 0.057621 6.06813C0.056036 6.08219 0.0550823 6.09612 0.0545559 6.11006C0.0544195 6.11851 0.0542479 6.12736 0.0542479 6.13625L0.0545883 6.16257C0.055109 6.1759 0.0560198 6.18922 0.0573215 6.20251L0.0542479 6.13625C0.0542479 6.17912 0.058219 6.22106 0.0658131 6.26173C0.0675745 6.27144 0.0696726 6.28142 0.0719967 6.29135C0.0768223 6.3118 0.0823994 6.33149 0.0888205 6.3508C0.0919724 6.36039 0.095644 6.37064 0.0995684 6.38081C0.107508 6.40125 0.116137 6.42074 0.125629 6.43972C0.130039 6.44865 0.134978 6.45799 0.14015 6.46724C0.14864 6.48233 0.157386 6.49667 0.166634 6.51064C0.173159 6.52053 0.180385 6.53083 0.187929 6.54097L0.193809 6.54879C0.212111 6.57271 0.231967 6.59537 0.253225 6.61663L0.254041 6.61726L5.73415 12.0747C6 12.3395 6.43014 12.3386 6.6949 12.0727C6.93558 11.831 6.95673 11.4536 6.75884 11.188L6.69291 11.112L2.38035 6.81615L14.3206 6.8156C14.6958 6.8156 15 6.51145 15 6.13625Z" fill="#05A42C"/>
</svg>
