<svg width="15" height="13" viewBox="0 0 15 13" fill="none" xmlns="http://www.w3.org/2000/svg">
<path d="M0 6.13625C0 5.79232 0.255576 5.50808 0.587168 5.4631L0.679352 5.4569L12.6215 5.45744L8.30713 1.16074C8.04126 0.896006 8.04033 0.465865 8.30506 0.19999C8.54573 -0.0417137 8.9231 -0.0644522 9.18947 0.132308L9.26581 0.197922L14.7459 5.65448C14.781 5.68938 14.8114 5.72714 14.8372 5.76702C14.8445 5.77903 14.852 5.79131 14.859 5.80384C14.8655 5.81458 14.8713 5.82573 14.8769 5.837C14.8845 5.85341 14.892 5.87035 14.8988 5.88765C14.9044 5.90098 14.909 5.91395 14.9132 5.92702C14.9182 5.94323 14.923 5.9605 14.9272 5.97803C14.9303 5.99028 14.9328 6.00206 14.935 6.01389C14.938 6.03149 14.9405 6.0497 14.9424 6.06813C14.944 6.08219 14.9449 6.09612 14.9454 6.11006C14.9456 6.11851 14.9458 6.12736 14.9458 6.13625L14.9454 6.16257C14.9449 6.1759 14.944 6.18922 14.9427 6.20251L14.9458 6.13625C14.9458 6.17912 14.9418 6.22106 14.9342 6.26173C14.9324 6.27144 14.9303 6.28142 14.928 6.29135C14.9232 6.3118 14.9176 6.33149 14.9112 6.3508C14.908 6.36039 14.9044 6.37064 14.9004 6.38081C14.8925 6.40125 14.8839 6.42074 14.8744 6.43972C14.87 6.44865 14.865 6.45799 14.8598 6.46724C14.8514 6.48233 14.8426 6.49667 14.8334 6.51064C14.8268 6.52053 14.8196 6.53083 14.8121 6.54097L14.8062 6.54879C14.7879 6.57271 14.768 6.59537 14.7468 6.61663L14.746 6.61726L9.26585 12.0747C9 12.3395 8.56986 12.3386 8.3051 12.0727C8.06442 11.831 8.04327 11.4536 8.24116 11.188L8.30709 11.112L12.6196 6.81615L0.679352 6.8156C0.304156 6.8156 0 6.51145 0 6.13625Z" fill="white"/>
</svg>
